<svg id="Capa_1" enable-background="new 0 0 508 508" height="512" viewBox="0 0 508 508" width="512" xmlns="http://www.w3.org/2000/svg"><g><path d="m60 50c0 5.523-4.477 10-10 10s-10-4.477-10-10 4.477-10 10-10 10 4.477 10 10zm45 0c0 5.523-4.477 10-10 10s-10-4.477-10-10 4.477-10 10-10 10 4.477 10 10zm45 0c0 5.523-4.477 10-10 10s-10-4.477-10-10 4.477-10 10-10 10 4.477 10 10zm-76 270c-5.521 0-10 4.49-10 10s4.479 10 10 10c5.51 0 10-4.49 10-10s-4.49-10-10-10zm34-166c0 18.748-15.252 34-34 34s-34-15.252-34-34 15.252-34 34-34 34 15.252 34 34zm-20 0c0-7.72-6.28-14-14-14s-14 6.28-14 14 6.28 14 14 14 14-6.28 14-14zm170-10h72c5.522 0 10-4.477 10-10s-4.478-10-10-10h-72c-5.522 0-10 4.477-10 10s4.478 10 10 10zm250 46v200c0 5.523-4.478 10-10 10h-134v98c0 5.523-4.478 10-10 10h-200c-5.522 0-10-4.477-10-10v-128c0-5.523 4.478-10 10-10h26v-20h-61c-5.51 0-10-4.49-10-10s4.49-10 10-10h61v-92h-160v92h8.642c5.318 0 9.973 4 10.335 9.306.396 5.822-4.238 10.694-9.977 10.694h-19c-5.523 0-10-4.477-10-10v-300c0-16.569 13.431-30 30-30h320c16.569 0 30 13.431 30 30v150h118c5.522 0 10 4.477 10 10zm-288.897 10 118.75 92.533c3.62 2.82 8.675 2.82 12.293 0l118.751-92.533zm-199.103-120h340v-50c0-5.514-4.486-10-10-10h-320c-5.514 0-10 4.486-10 10zm160 128v-18c0-5.523 4.478-10 10-10h170v-80h-340v108zm164 172h-180v108h180zm-90-20c7.72 0 14-6.28 14-14s-6.28-14-14-14-14 6.28-14 14 6.28 14 14 14zm234 20v-169.53l-125.561 97.839c-11.052 8.497-25.891 8.562-36.879 0l-125.56-97.839v149.53h23.029c-1.939-4.273-3.029-9.01-3.029-14 0-18.748 15.252-34 34-34s34 15.252 34 34c0 4.99-1.089 9.727-3.029 14h69.029c5.522 0 10 4.477 10 10v10zm-30-80h-48c-5.522 0-10 4.477-10 10s4.478 10 10 10h48c5.522 0 10-4.477 10-10s-4.478-10-10-10zm-14 40h-34c-5.522 0-10 4.477-10 10s4.478 10 10 10h34c5.522 0 10-4.477 10-10s-4.478-10-10-10zm-164 80h34c5.522 0 10-4.477 10-10s-4.478-10-10-10h-34c-5.522 0-10 4.477-10 10s4.478 10 10 10zm0 40h34c5.522 0 10-4.477 10-10s-4.478-10-10-10h-34c-5.522 0-10 4.477-10 10s4.478 10 10 10zm-28-26c0 18.748-15.252 34-34 34s-34-15.252-34-34 15.252-34 34-34 34 15.252 34 34zm-20 0c0-7.72-6.28-14-14-14s-14 6.28-14 14 6.28 14 14 14 14-6.28 14-14z"/></g></svg>