<svg height="512" viewBox="0 0 64 64" width="512" xmlns="http://www.w3.org/2000/svg"><g id="World-Computer-Global-Connection-Communication"><path d="m55.707 56.293-6-6a1 1 0 0 0 -.707-.293h-30v-2a3 3 0 0 0 -3-3h-6a1 1 0 0 1 0-2h6a3 3 0 0 0 3-3v-2h7v4h-4a1 1 0 0 0 -1 1v4a1 1 0 0 0 1 1h20a1 1 0 0 0 1-1v-4a1 1 0 0 0 -1-1h-4v-4h14a3 3 0 0 0 3-3v-26a3 3 0 0 0 -3-3h-8v2h8a1 1 0 0 1 1 1v21h-4v2h4v3a1 1 0 0 1 -1 1h-40a1 1 0 0 1 -1-1v-3h3v-2h-3v-21a1 1 0 0 1 1-1h8v-2h-8a3 3 0 0 0 -3 3v26a3 3 0 0 0 3 3h5v2a1 1 0 0 1 -1 1h-6a3 3 0 0 0 0 6h6a1 1 0 0 1 1 1v2h-2a1 1 0 0 0 -.707.293l-6 6a1 1 0 0 0 -.293.707v3a2 2 0 0 0 2 2h44a2 2 0 0 0 2-2v-3a1 1 0 0 0 -.293-.707zm-14.707-10.293h-18v-2h18zm-5-4h-8v-4h8zm-20.586 10h33.172l4 4h-41.172zm-5.414 8v-2h44v2z"/><path d="m16 53h2v2h-2z"/><path d="m20 53h2v2h-2z"/><path d="m42 53h2v2h-2z"/><path d="m24 53h16v2h-16z"/><path d="m46 53h2v2h-2z"/><path d="m47 33h2v2h-2z"/><path d="m25 30h2v2h-2z"/><path d="m37 30h2v2h-2z"/><path d="m25 23.727v2.859l-1.414 1.414h-1.77a3 3 0 1 0 0 2h2.184a1 1 0 0 0 .707-.293l2-2a1 1 0 0 0 .293-.707v-2.1a11.91 11.91 0 0 0 4 1.054v2.235a3 3 0 1 0 2 0v-2.24a11.91 11.91 0 0 0 4-1.049v2.1a1 1 0 0 0 .293.707l2 2a1 1 0 0 0 .707.293h2.184a3 3 0 1 0 0-2h-1.77l-1.414-1.414v-2.859a12 12 0 1 0 -14 0zm-6 6.273a1 1 0 1 1 1-1 1 1 0 0 1 -1 1zm26-2a1 1 0 1 1 -1 1 1 1 0 0 1 1-1zm-12-4.051a9.944 9.944 0 0 1 -3-.151v-.798h2.586l.414.414zm-1 8.051a1 1 0 1 1 1-1 1 1 0 0 1 -1 1zm10-18a9.949 9.949 0 0 1 -2.262 6.324l-2.031-2.031a1 1 0 0 0 -.707-.293h-1v-.586l1.707-1.707a1 1 0 0 0 .293-.707v-4a1 1 0 0 0 -1-1h-1.586l-1.414-1.414v-1.172l1.414-1.414h2.561a9.982 9.982 0 0 1 4.025 8zm-7.688-9.719c-.006 0-.014.007-.019.012l-2 2a1 1 0 0 0 -.293.707v2a1 1 0 0 0 .293.707l2 2a1 1 0 0 0 .707.293h1v2.586l-1.707 1.707a1 1 0 0 0 -.293.707v2a1 1 0 0 0 1 1h1.586l1.738 1.738a9.985 9.985 0 0 1 -3.324 1.801v-.539a1 1 0 0 0 -.293-.707l-1-1a1 1 0 0 0 -.707-.293h-4a1 1 0 0 0 -1 1v1.159a9.955 9.955 0 0 1 -2.324-1.421l.031-.031a1 1 0 0 0 .293-.707v-2h2a1.006 1.006 0 0 0 .555-.168l3-2a1 1 0 0 0 .445-.832v-4a1 1 0 0 0 -.293-.707l-1-1a1 1 0 0 0 -.707-.293h-1v-2a1 1 0 0 0 -.293-.707l-1.852-1.852a9.829 9.829 0 0 1 7.457-1.16zm-9.073 2.372 1.761 1.761v2.586a1 1 0 0 0 1 1h1.586l.414.414v3.051l-2.3 1.535h-2.7a1 1 0 0 0 -1 1v1.975a9.94 9.94 0 0 1 1.239-13.322z"/></g></svg>